<svg width="44" height="44" viewBox="0 0 44 44" fill="none" xmlns="http://www.w3.org/2000/svg">
<rect width="44" height="44" rx="15" fill="url(#paint0_linear_11_548)"/>
<path d="M29.5 29.1V29.6H30H31C31.1406 29.6 31.2707 29.6533 31.3627 29.7407C31.4539 29.8274 31.5 29.9392 31.5 30.05C31.5 30.1608 31.4539 30.2727 31.3627 30.3593C31.2707 30.4467 31.1406 30.5 31 30.5H13C12.8594 30.5 12.7293 30.4467 12.6373 30.3593C12.5461 30.2726 12.5 30.1608 12.5 30.05V12.95C12.5 12.8392 12.5461 12.7274 12.6373 12.6407C12.7293 12.5533 12.8594 12.5 13 12.5C13.1406 12.5 13.2707 12.5533 13.3627 12.6407C13.4539 12.7274 13.5 12.8392 13.5 12.95V29.1V29.6H14H16H16.5V29.1V26.25C16.5 26.1392 16.5461 26.0273 16.6373 25.9407L16.3136 25.6001L16.6373 25.9407C16.7293 25.8533 16.8594 25.8 17 25.8C17.1406 25.8 17.2707 25.8533 17.3627 25.9407L17.7071 25.5782L17.3627 25.9407C17.4539 26.0273 17.5 26.1392 17.5 26.25V29.1V29.6H18H20H20.5V29.1V22.45C20.5 22.3392 20.5461 22.2274 20.6373 22.1407C20.7293 22.0533 20.8594 22 21 22C21.1406 22 21.2707 22.0533 21.3627 22.1407C21.4539 22.2274 21.5 22.3392 21.5 22.45V29.1V29.6H22H24H24.5V29.1V18.65C24.5 18.5392 24.5461 18.4274 24.6373 18.3407C24.7293 18.2533 24.8594 18.2 25 18.2C25.1406 18.2 25.2707 18.2533 25.3627 18.3407C25.4539 18.4274 25.5 18.5392 25.5 18.65V29.1V29.6H26H28H28.5V29.1V14.85C28.5 14.7392 28.5461 14.6274 28.6373 14.5407C28.7293 14.4533 28.8594 14.4 29 14.4C29.1406 14.4 29.2707 14.4533 29.3627 14.5407C29.4539 14.6274 29.5 14.7392 29.5 14.85V29.1Z" fill="#1C1C1C" stroke="#1C1C1C"/>
<defs>
<linearGradient id="paint0_linear_11_548" x1="22" y1="0" x2="22" y2="44" gradientUnits="userSpaceOnUse">
<stop stop-color="#FF922E"/>
<stop offset="1" stop-color="#FF5824"/>
</linearGradient>
</defs>
</svg>
