<svg width="44" height="44" viewBox="0 0 44 44" fill="none" xmlns="http://www.w3.org/2000/svg">
<rect width="44" height="44" rx="15" fill="url(#paint0_linear_11_562)"/>
<path d="M15 17C15.5304 17 16.0391 16.7893 16.4142 16.4142C16.7893 16.0391 17 15.5304 17 15C17 14.4696 16.7893 13.9609 16.4142 13.5858C16.0391 13.2107 15.5304 13 15 13C14.4696 13 13.9609 13.2107 13.5858 13.5858C13.2107 13.9609 13 14.4696 13 15C13 15.5304 13.2107 16.0391 13.5858 16.4142C13.9609 16.7893 14.4696 17 15 17ZM16 32C16.7956 32 17.5587 31.6839 18.1213 31.1213C18.6839 30.5587 19 29.7956 19 29C19 28.2044 18.6839 27.4413 18.1213 26.8787C17.5587 26.3161 16.7956 26 16 26C15.2044 26 14.4413 26.3161 13.8787 26.8787C13.3161 27.4413 13 28.2044 13 29C13 29.7956 13.3161 30.5587 13.8787 31.1213C14.4413 31.6839 15.2044 32 16 32ZM30 33C30.7956 33 31.5587 32.6839 32.1213 32.1213C32.6839 31.5587 33 30.7956 33 30C33 29.2044 32.6839 28.4413 32.1213 27.8787C31.5587 27.3161 30.7956 27 30 27C29.2044 27 28.4413 27.3161 27.8787 27.8787C27.3161 28.4413 27 29.2044 27 30C27 30.7956 27.3161 31.5587 27.8787 32.1213C28.4413 32.6839 29.2044 33 30 33ZM22 25C23.0609 25 24.0783 24.5786 24.8284 23.8284C25.5786 23.0783 26 22.0609 26 21C26 19.9391 25.5786 18.9217 24.8284 18.1716C24.0783 17.4214 23.0609 17 22 17C20.9391 17 19.9217 17.4214 19.1716 18.1716C18.4214 18.9217 18 19.9391 18 21C18 22.0609 18.4214 23.0783 19.1716 23.8284C19.9217 24.5786 20.9391 25 22 25ZM28 17C28.5304 17 29.0391 16.7893 29.4142 16.4142C29.7893 16.0391 30 15.5304 30 15C30 14.4696 29.7893 13.9609 29.4142 13.5858C29.0391 13.2107 28.5304 13 28 13C27.4696 13 26.9609 13.2107 26.5858 13.5858C26.2107 13.9609 26 14.4696 26 15C26 15.5304 26.2107 16.0391 26.5858 16.4142C26.9609 16.7893 27.4696 17 28 17Z" stroke="#111111" stroke-width="2" stroke-linecap="round" stroke-linejoin="round"/>
<path d="M16.5 16.5L18.5 18.5M26 17L25 18M28 27.75L25 24M18 26.5L20 24.5" stroke="#111111" stroke-width="2" stroke-linecap="round" stroke-linejoin="round"/>
<defs>
<linearGradient id="paint0_linear_11_562" x1="22" y1="0" x2="22" y2="44" gradientUnits="userSpaceOnUse">
<stop stop-color="#FF922E"/>
<stop offset="1" stop-color="#FF5824"/>
</linearGradient>
</defs>
</svg>
