<svg width="34" height="34" viewBox="0 0 34 34" fill="none" xmlns="http://www.w3.org/2000/svg">
<rect width="34" height="34" rx="9" fill="url(#paint0_linear_11_715)"/>
<path d="M12.5 22.8125C11.2 22.475 10.125 21.775 9.275 20.7125C8.425 19.65 8 18.4125 8 17C8 15.5875 8.425 14.35 9.275 13.2875C10.125 12.225 11.2 11.525 12.5 11.1875V12.7625C11.6125 13.0625 10.8907 13.6 10.3347 14.375C9.77875 15.15 9.5005 16.025 9.5 17C9.4995 17.975 9.77775 18.85 10.3347 19.625C10.8917 20.4 11.6135 20.9375 12.5 21.2375V22.8125ZM18.5 23C16.8375 23 15.4218 22.4158 14.2527 21.2472C13.0837 20.0787 12.4995 18.663 12.5 17C12.5005 15.337 13.085 13.9212 14.2535 12.7527C15.422 11.5842 16.8375 11 18.5 11C19.325 11 20.1 11.1562 20.825 11.4688C21.55 11.7812 22.1875 12.2125 22.7375 12.7625L21.6875 13.8125C21.275 13.4 20.797 13.0782 20.2535 12.8472C19.71 12.6162 19.1255 12.5005 18.5 12.5C17.25 12.5 16.1875 12.9375 15.3125 13.8125C14.4375 14.6875 14 15.75 14 17C14 18.25 14.4375 19.3125 15.3125 20.1875C16.1875 21.0625 17.25 21.5 18.5 21.5C19.125 21.5 19.7095 21.3845 20.2535 21.1535C20.7975 20.9225 21.2755 20.6005 21.6875 20.1875L22.7375 21.2375C22.1875 21.7875 21.55 22.2188 20.825 22.5312C20.1 22.8438 19.325 23 18.5 23ZM23 20L21.95 18.95L23.15 17.75H17.75V16.25H23.15L21.95 15.05L23 14L26 17L23 20Z" fill="#111111"/>
<defs>
<linearGradient id="paint0_linear_11_715" x1="17" y1="0" x2="17" y2="34" gradientUnits="userSpaceOnUse">
<stop stop-color="#FF922E"/>
<stop offset="1" stop-color="#FF5824"/>
</linearGradient>
</defs>
</svg>
