<svg width="34" height="34" viewBox="0 0 34 34" fill="none" xmlns="http://www.w3.org/2000/svg">
<rect width="34" height="34" rx="9" fill="url(#paint0_linear_11_669)"/>
<path fill-rule="evenodd" clip-rule="evenodd" d="M11.0778 23.1787H13.1425V22.1464H11.0778V11.8229H14.9935L17.0581 13.8876H23.4659V17.5008H24.4983V13.8876C24.498 13.6139 24.3891 13.3514 24.1956 13.1579C24.0021 12.9644 23.7396 12.8555 23.4659 12.8552H17.4855L15.7233 11.093C15.6277 10.9969 15.5139 10.9207 15.3886 10.8688C15.2634 10.8169 15.1291 10.7903 14.9935 10.7905H11.0778C10.804 10.7908 10.5416 10.8997 10.3481 11.0932C10.1545 11.2867 10.0457 11.5492 10.0454 11.8229V22.1464C10.0457 22.4201 10.1545 22.6825 10.3481 22.876C10.5416 23.0696 10.804 23.1784 11.0778 23.1787ZM15.2072 21.6302H16.2395V18.2307L20.6693 22.6626L21.4012 21.9327L16.9694 17.5008H20.3689V16.4685H15.2072V21.6302ZM22.4336 24.7273H18.8203C18.251 24.7273 17.788 24.2643 17.788 23.6949V22.6626H18.8203V23.6949H22.4336V20.0817H21.4012V19.0494H22.4336C23.0029 19.0494 23.4659 19.5124 23.4659 20.0817V23.6949C23.4659 24.2643 23.0029 24.7273 22.4336 24.7273Z" fill="#111111"/>
<path d="M13.1425 23.1787V23.4287C13.2805 23.4287 13.3925 23.3168 13.3925 23.1787H13.1425ZM11.0778 23.1787L11.0775 23.4287H11.0778V23.1787ZM13.1425 22.1464H13.3925C13.3925 22.0083 13.2805 21.8964 13.1425 21.8964V22.1464ZM11.0778 22.1464H10.8278C10.8278 22.2844 10.9397 22.3964 11.0778 22.3964V22.1464ZM11.0778 11.8229V11.5729C10.9397 11.5729 10.8278 11.6848 10.8278 11.8229H11.0778ZM14.9935 11.8229L15.1702 11.6461C15.1233 11.5992 15.0598 11.5729 14.9935 11.5729V11.8229ZM17.0581 13.8876L16.8814 14.0643C16.9283 14.1112 16.9918 14.1376 17.0581 14.1376V13.8876ZM23.4659 13.8876H23.7159C23.7159 13.7495 23.604 13.6376 23.4659 13.6376V13.8876ZM23.4659 17.5008H23.2159C23.2159 17.6389 23.3279 17.7508 23.4659 17.7508V17.5008ZM24.4983 17.5008V17.7508C24.6363 17.7508 24.7483 17.6389 24.7483 17.5008H24.4983ZM24.4983 13.8876H24.7483V13.8873L24.4983 13.8876ZM23.4659 12.8552L23.4662 12.6052H23.4659V12.8552ZM17.4855 12.8552L17.3088 13.032C17.3556 13.0789 17.4192 13.1052 17.4855 13.1052V12.8552ZM15.7233 11.093L15.5461 11.2694L15.5465 11.2698L15.7233 11.093ZM15.3886 10.8688L15.4843 10.6378L15.3886 10.8688ZM14.9935 10.7905V11.0405L14.9939 11.0405L14.9935 10.7905ZM11.0778 10.7905V10.5405L11.0775 10.5405L11.0778 10.7905ZM10.3481 11.0932L10.1713 10.9164H10.1713L10.3481 11.0932ZM10.0454 11.8229L9.79541 11.8226V11.8229H10.0454ZM10.0454 22.1464H9.79541L9.79541 22.1466L10.0454 22.1464ZM10.3481 22.876L10.1713 23.0528H10.1713L10.3481 22.876ZM16.2395 21.6302V21.8802C16.3776 21.8802 16.4895 21.7683 16.4895 21.6302H16.2395ZM15.2072 21.6302H14.9572C14.9572 21.7683 15.0691 21.8802 15.2072 21.8802V21.6302ZM16.2395 18.2307L16.4163 18.0539C16.3448 17.9824 16.2373 17.961 16.1439 17.9997C16.0504 18.0384 15.9895 18.1296 15.9895 18.2307H16.2395ZM20.6693 22.6626L20.4925 22.8393C20.59 22.9369 20.7481 22.937 20.8458 22.8396L20.6693 22.6626ZM21.4012 21.9327L21.5778 22.1097C21.6248 22.0628 21.6512 21.9992 21.6512 21.9329C21.6513 21.8665 21.6249 21.8028 21.578 21.7559L21.4012 21.9327ZM16.9694 17.5008V17.2508C16.8683 17.2508 16.7771 17.3117 16.7384 17.4051C16.6997 17.4986 16.7211 17.6061 16.7926 17.6776L16.9694 17.5008ZM20.3689 17.5008V17.7508C20.507 17.7508 20.6189 17.6389 20.6189 17.5008H20.3689ZM20.3689 16.4685H20.6189C20.6189 16.3304 20.507 16.2185 20.3689 16.2185V16.4685ZM15.2072 16.4685V16.2185C15.0691 16.2185 14.9572 16.3304 14.9572 16.4685H15.2072ZM17.788 22.6626V22.4126C17.6499 22.4126 17.538 22.5245 17.538 22.6626H17.788ZM18.8203 22.6626H19.0703C19.0703 22.5245 18.9584 22.4126 18.8203 22.4126V22.6626ZM18.8203 23.6949H18.5703C18.5703 23.833 18.6823 23.9449 18.8203 23.9449V23.6949ZM22.4336 23.6949V23.9449C22.5716 23.9449 22.6836 23.833 22.6836 23.6949H22.4336ZM22.4336 20.0817H22.6836C22.6836 19.9436 22.5716 19.8317 22.4336 19.8317V20.0817ZM21.4012 20.0817H21.1512C21.1512 20.2198 21.2631 20.3317 21.4012 20.3317V20.0817ZM21.4012 19.0494V18.7994C21.2631 18.7994 21.1512 18.9113 21.1512 19.0494H21.4012ZM13.1425 22.9287H11.0778V23.4287H13.1425V22.9287ZM12.8925 22.1464V23.1787H13.3925V22.1464H12.8925ZM11.0778 22.3964H13.1425V21.8964H11.0778V22.3964ZM10.8278 11.8229V22.1464H11.3278V11.8229H10.8278ZM14.9935 11.5729H11.0778V12.0729H14.9935V11.5729ZM17.2349 13.7108L15.1702 11.6461L14.8167 11.9997L16.8814 14.0643L17.2349 13.7108ZM23.4659 13.6376H17.0581V14.1376H23.4659V13.6376ZM23.7159 17.5008V13.8876H23.2159V17.5008H23.7159ZM24.4983 17.2508H23.4659V17.7508H24.4983V17.2508ZM24.2483 13.8876V17.5008H24.7483V13.8876H24.2483ZM24.0188 13.3347C24.1655 13.4814 24.2481 13.6803 24.2483 13.8878L24.7483 13.8873C24.7479 13.5474 24.6127 13.2215 24.3724 12.9811L24.0188 13.3347ZM23.4657 13.1052C23.6732 13.1054 23.8721 13.188 24.0188 13.3347L24.3724 12.9811C24.132 12.7408 23.8061 12.6056 23.4662 12.6052L23.4657 13.1052ZM17.4855 13.1052H23.4659V12.6052H17.4855V13.1052ZM15.5465 11.2698L17.3088 13.032L17.6623 12.6784L15.9001 10.9162L15.5465 11.2698ZM15.2929 11.0997C15.3877 11.139 15.4738 11.1967 15.5461 11.2694L15.9005 10.9166C15.7815 10.7971 15.6401 10.7024 15.4843 10.6378L15.2929 11.0997ZM14.9939 11.0405C15.0965 11.0403 15.1981 11.0605 15.2929 11.0997L15.4843 10.6378C15.3286 10.5733 15.1616 10.5402 14.993 10.5405L14.9939 11.0405ZM11.0778 11.0405H14.9935V10.5405H11.0778V11.0405ZM10.5249 11.27C10.6716 11.1233 10.8705 11.0407 11.078 11.0405L11.0775 10.5405C10.7376 10.5409 10.4117 10.6761 10.1713 10.9164L10.5249 11.27ZM10.2954 11.8231C10.2956 11.6156 10.3781 11.4167 10.5249 11.27L10.1713 10.9164C9.93094 11.1568 9.79575 11.4827 9.79541 11.8226L10.2954 11.8231ZM10.2954 22.1464V11.8229H9.79541V22.1464H10.2954ZM10.5249 22.6993C10.3781 22.5525 10.2956 22.3536 10.2954 22.1461L9.79541 22.1466C9.79575 22.4865 9.93094 22.8124 10.1713 23.0528L10.5249 22.6993ZM11.078 22.9287C10.8705 22.9285 10.6716 22.846 10.5249 22.6993L10.1713 23.0528C10.4117 23.2932 10.7376 23.4284 11.0775 23.4287L11.078 22.9287ZM16.2395 21.3802H15.2072V21.8802H16.2395V21.3802ZM15.9895 18.2307V21.6302H16.4895V18.2307H15.9895ZM20.8461 22.4858L16.4163 18.0539L16.0627 18.4074L20.4925 22.8393L20.8461 22.4858ZM21.2247 21.7557L20.4928 22.4855L20.8458 22.8396L21.5778 22.1097L21.2247 21.7557ZM16.7926 17.6776L21.2245 22.1095L21.578 21.7559L17.1462 17.324L16.7926 17.6776ZM20.3689 17.2508H16.9694V17.7508H20.3689V17.2508ZM20.1189 16.4685V17.5008H20.6189V16.4685H20.1189ZM15.2072 16.7185H20.3689V16.2185H15.2072V16.7185ZM15.4572 21.6302V16.4685H14.9572V21.6302H15.4572ZM18.8203 24.9773H22.4336V24.4773H18.8203V24.9773ZM17.538 23.6949C17.538 24.4023 18.1129 24.9773 18.8203 24.9773V24.4773C18.3891 24.4773 18.038 24.1262 18.038 23.6949H17.538ZM17.538 22.6626V23.6949H18.038V22.6626H17.538ZM18.8203 22.4126H17.788V22.9126H18.8203V22.4126ZM19.0703 23.6949V22.6626H18.5703V23.6949H19.0703ZM22.4336 23.4449H18.8203V23.9449H22.4336V23.4449ZM22.1836 20.0817V23.6949H22.6836V20.0817H22.1836ZM21.4012 20.3317H22.4336V19.8317H21.4012V20.3317ZM21.1512 19.0494V20.0817H21.6512V19.0494H21.1512ZM22.4336 18.7994H21.4012V19.2994H22.4336V18.7994ZM23.7159 20.0817C23.7159 19.3743 23.141 18.7994 22.4336 18.7994V19.2994C22.8648 19.2994 23.2159 19.6504 23.2159 20.0817H23.7159ZM23.7159 23.6949V20.0817H23.2159V23.6949H23.7159ZM22.4336 24.9773C23.141 24.9773 23.7159 24.4023 23.7159 23.6949H23.2159C23.2159 24.1262 22.8648 24.4773 22.4336 24.4773V24.9773Z" fill="black"/>
<defs>
<linearGradient id="paint0_linear_11_669" x1="17" y1="0" x2="17" y2="34" gradientUnits="userSpaceOnUse">
<stop stop-color="#FF922E"/>
<stop offset="1" stop-color="#FF5824"/>
</linearGradient>
</defs>
</svg>
