<svg width="49" height="48" viewBox="0 0 49 48" fill="none" xmlns="http://www.w3.org/2000/svg">
<rect x="0.564087" width="47.564" height="47.564" rx="12" fill="#FF5824"/>
<path d="M30.324 17.2049C30.4475 17.1565 30.5702 17.1084 30.6987 17.0754C31.149 16.9598 32.2362 16.8062 32.1193 18.0599C32.0709 18.7091 31.6317 20.9818 31.2897 23.4397L30.2264 30.0475C30.1542 30.4964 30.1303 30.968 29.914 31.368C29.7724 31.6299 29.5354 31.8902 29.1413 31.9734C28.2628 32.1585 26.9446 31.3241 26.7003 31.1385C26.5049 30.9992 23.0388 28.9121 21.8183 27.8921C21.4763 27.6135 21.0855 27.0573 21.8672 26.408L26.993 21.77C27.5788 21.2137 28.1647 19.9151 25.7236 21.4918L19.1948 25.7C18.9904 25.8317 18.7832 25.9632 18.5485 26.0266C18.1879 26.124 17.545 26.2015 16.6427 25.9443L15.5586 25.6273C14.1709 25.2217 12.9333 24.0998 14.2989 23.6253C19.125 21.4708 25.0489 19.271 30.324 17.2049Z" fill="white"/>
</svg>
