<svg width="48" height="48" viewBox="0 0 48 48" fill="none" xmlns="http://www.w3.org/2000/svg">
<rect width="47.564" height="47.564" rx="12" fill="#FF5824"/>
<path d="M25.3903 18.7322C23.9953 19.3103 23.0781 20.5809 23.031 22.0331C23.0302 22.107 22.9664 22.1645 22.8929 22.1577L22.8418 22.153C20.9952 21.9502 19.3693 21.0135 18.2529 19.4919C18.1773 19.3888 18.0763 19.3059 17.9592 19.2511C17.8421 19.1962 17.7127 19.171 17.583 19.178C17.4533 19.1849 17.3275 19.2236 17.2172 19.2906C17.1069 19.3576 17.0157 19.4507 16.9521 19.5612L16.8772 19.7014L16.8393 19.776C16.2843 20.8952 15.9206 22.2555 16.0542 23.6971L16.0774 23.9029C16.2958 25.6084 17.2354 27.0794 18.9948 28.1827L19.0681 28.227C19.0945 28.2429 19.0932 28.2816 19.0659 28.2958C18.0507 28.7954 17.1219 29.0132 16.1113 28.9741C15.2961 28.9439 14.995 30.008 15.7114 30.3894C18.4892 31.8672 21.4715 32.3232 24.0431 31.5952C27.1775 30.7059 29.5647 28.4126 30.478 25.2398L30.576 24.8668C30.7598 24.1184 30.8632 23.355 30.8856 22.5878C30.8871 22.4233 30.9273 22.2615 31.0028 22.1153L31.1913 21.7505L31.531 21.1009L31.6962 20.7738L31.7873 20.5877C31.9919 20.1619 32.1394 19.8092 32.2305 19.51L32.2376 19.4822C32.24 19.4726 32.2433 19.4633 32.2474 19.4542C32.4173 19.0073 32.1193 18.4308 31.521 18.4308L31.4268 18.4361C31.3658 18.4434 31.3059 18.4578 31.2484 18.479L31.182 18.5077C30.9617 18.6121 30.7348 18.7027 30.5027 18.779L30.2278 18.8656L30.0186 18.9259C29.6445 19.0272 29.2515 18.9279 28.9103 18.7442C27.9511 18.228 26.7686 18.2251 25.5532 18.6697L25.3903 18.7322Z" fill="white"/>
</svg>
